<svg viewBox="0 0 10 10" fill="none" xmlns="http://www.w3.org/2000/svg">
  <path d="M0.437316 9.31883C0.437316 9.42792 0.47974 9.52489 0.564589 9.60974C0.637316 9.68247 0.728226 9.71883 0.837317 9.71883L2.78277 9.71883C2.89186 9.71883 2.98883 9.68247 3.07368 9.60974C3.14641 9.52489 3.18277 9.42792 3.18277 9.31883C3.15853 8.94307 3.13429 8.51277 3.11004 8.02792C3.0858 7.53095 3.06156 7.0158 3.03732 6.48247C3.01307 5.93701 2.98883 5.37944 2.96459 4.80974C2.92823 4.24004 2.89792 3.68853 2.87368 3.1552C2.87368 3.10671 2.89792 3.07035 2.94641 3.0461C2.98277 3.00974 3.0252 3.00368 3.07368 3.02792C3.36459 3.14914 3.58883 3.32489 3.74641 3.5552C3.89186 3.7855 4.00095 4.04611 4.07368 4.33701C4.13429 4.62792 4.17065 4.93095 4.18277 5.24611C4.18277 5.56126 4.18277 5.86429 4.18277 6.1552C4.18277 6.39762 4.20095 6.56732 4.23732 6.66429C4.26156 6.76126 4.35247 6.80974 4.51004 6.80974L5.36459 6.80974C5.52217 6.80974 5.61913 6.76126 5.6555 6.66429C5.67974 6.56732 5.69186 6.39762 5.69186 6.1552C5.69186 5.86429 5.69792 5.56126 5.71004 5.24611C5.71004 4.93095 5.74641 4.62792 5.81914 4.33701C5.87974 4.04611 5.98883 3.7855 6.14641 3.5552C6.29186 3.32489 6.51004 3.14914 6.80095 3.02792C6.86156 3.00368 6.91004 3.00974 6.94641 3.04611C6.98277 3.07035 7.00095 3.10671 7.00095 3.1552C6.97671 3.68853 6.95247 4.24004 6.92823 4.80974C6.89186 5.37944 6.86156 5.93701 6.83732 6.48247C6.80095 7.0158 6.77065 7.53095 6.74641 8.02792C6.72217 8.51277 6.70398 8.94307 6.69186 9.31883C6.69186 9.42792 6.73429 9.52489 6.81913 9.60974C6.89186 9.68247 6.98277 9.71883 7.09186 9.71883L9.03732 9.71883C9.15853 9.71883 9.2555 9.68247 9.32823 9.60974C9.40095 9.52489 9.43732 9.42792 9.43732 9.31883C9.41307 8.77338 9.38277 8.11277 9.34641 7.33702C9.31004 6.54914 9.27368 5.74914 9.23732 4.93701C9.18883 4.11277 9.14641 3.31277 9.11004 2.53701C9.07368 1.76126 9.04338 1.10065 9.01914 0.555197C9.00701 0.446106 8.96459 0.355197 8.89186 0.28247C8.81914 0.209742 8.72823 0.173378 8.61914 0.173378L7.6555 0.173378C7.27974 0.173378 6.95247 0.270348 6.67368 0.464287C6.39489 0.658226 6.15247 0.900651 5.94641 1.19156C5.74035 1.48247 5.56459 1.79762 5.41913 2.13701C5.27368 2.47641 5.15247 2.7855 5.0555 3.06429C5.04338 3.11277 5.00701 3.13701 4.94641 3.13701C4.87368 3.13701 4.83126 3.11277 4.81913 3.06429C4.72217 2.7855 4.60095 2.47641 4.4555 2.13701C4.31004 1.79762 4.13429 1.48247 3.92823 1.19156C3.72217 0.90065 3.47974 0.658226 3.20095 0.464287C2.92217 0.270347 2.59489 0.173377 2.21914 0.173377L1.2555 0.173377C1.14641 0.173377 1.0555 0.209741 0.982772 0.282469C0.910044 0.355196 0.86762 0.446105 0.855499 0.555196C0.831257 1.10065 0.800954 1.76126 0.76459 2.53701C0.728226 3.31277 0.691862 4.11277 0.655498 4.93701C0.607013 5.74913 0.564589 6.54914 0.528226 7.33701C0.491862 8.11277 0.461559 8.77338 0.437316 9.31883Z" fill="#510E2A"/>
</svg>
